<?xml version="1.0" standalone="no"?><svg xmlns="http://www.w3.org/2000/svg" viewBox="0 0 1440 320"><path fill="#fefefe" fill-opacity="1" d="M0,96L0,320L102.9,320L102.9,96L205.7,96L205.7,288L308.6,288L308.6,192L411.4,192L411.4,288L514.3,288L514.3,288L617.1,288L617.1,32L720,32L720,64L822.9,64L822.9,192L925.7,192L925.7,96L1028.6,96L1028.6,288L1131.4,288L1131.4,256L1234.3,256L1234.3,288L1337.1,288L1337.1,288L1440,288L1440,0L1337.1,0L1337.1,0L1234.3,0L1234.3,0L1131.4,0L1131.4,0L1028.6,0L1028.6,0L925.7,0L925.7,0L822.9,0L822.9,0L720,0L720,0L617.1,0L617.1,0L514.3,0L514.3,0L411.4,0L411.4,0L308.6,0L308.6,0L205.7,0L205.7,0L102.9,0L102.9,0L0,0L0,0Z"></path></svg>