<svg xmlns="http://www.w3.org/2000/svg" viewBox="0 0 1440 1000"><path fill="#8f8f8a" fill-opacity="1" d="M0,96L0,320L102.9,320L102.9,96L205.7,96L205.7,288L308.6,288L308.6,192L411.4,192L411.4,288L514.3,288L514.3,288L617.1,288L617.1,32L720,32L720,64L822.9,64L822.9,192L925.7,192L925.7,96L1028.6,96L1028.6,288L1131.4,288L1131.4,256L1234.3,256L1234.3,288L1337.1,288L1337.1,288L1440,288L1440,320L1337.1,320L1337.1,320L1234.3,320L1234.3,320L1131.4,320L1131.4,320L1028.6,320L1028.6,320L925.7,320L925.7,320L822.9,320L822.9,320L720,320L720,320L617.1,320L617.1,320L514.3,320L514.3,320L411.4,320L411.4,320L308.6,320L308.6,320L205.7,320L205.7,320L102.9,320L102.9,320L0,320L0,320Z"></path></svg>