<svg xmlns="http://www.w3.org/2000/svg" viewBox="0 0 1440 320"><path fill="#8FBDD9" fill-opacity="1" d="M0,128L12,154.7C24,181,48,235,72,218.7C96,203,120,117,144,101.3C168,85,192,139,216,170.7C240,203,264,213,288,186.7C312,160,336,96,360,101.3C384,107,408,181,432,186.7C456,192,480,128,504,133.3C528,139,552,213,576,240C600,267,624,245,648,202.7C672,160,696,96,720,85.3C744,75,768,117,792,112C816,107,840,53,864,32C888,11,912,21,936,58.7C960,96,984,160,1008,202.7C1032,245,1056,267,1080,266.7C1104,267,1128,245,1152,224C1176,203,1200,181,1224,170.7C1248,160,1272,160,1296,160C1320,160,1344,160,1368,160C1392,160,1416,160,1428,160L1440,160L1440,320L1428,320C1416,320,1392,320,1368,320C1344,320,1320,320,1296,320C1272,320,1248,320,1224,320C1200,320,1176,320,1152,320C1128,320,1104,320,1080,320C1056,320,1032,320,1008,320C984,320,960,320,936,320C912,320,888,320,864,320C840,320,816,320,792,320C768,320,744,320,720,320C696,320,672,320,648,320C624,320,600,320,576,320C552,320,528,320,504,320C480,320,456,320,432,320C408,320,384,320,360,320C336,320,312,320,288,320C264,320,240,320,216,320C192,320,168,320,144,320C120,320,96,320,72,320C48,320,24,320,12,320L0,320Z"></path></svg>